<svg width="375" height="375" viewBox="0 0 375 375" fill="currentColor" xmlns="http://www.w3.org/2000/svg">
<path d="M307.253 157.036C312.022 157.036 316.791 157.029 321.564 157.05C321.817 157.05 322.125 157.204 322.311 157.39C327.123 162.18 331.92 166.981 336.717 171.782C336.843 171.908 336.952 172.052 337.061 172.175C337.001 172.256 336.977 172.294 336.949 172.322C332.046 177.228 327.147 182.134 322.231 187.022C322.055 187.198 321.718 187.289 321.455 187.289C316.77 187.303 312.082 187.3 307.397 187.3C307.246 187.3 307.092 187.272 306.941 187.258C306.902 187.198 306.864 187.138 306.825 187.079C311.822 182.081 316.819 177.084 321.834 172.07C316.879 167.118 311.903 162.142 306.818 157.064C307.053 157.05 307.151 157.036 307.253 157.036ZM299.354 172.129C294.22 177.263 289.233 182.246 284.176 187.303C284.429 187.303 284.608 187.303 284.787 187.303C289.43 187.303 294.076 187.307 298.719 187.289C298.999 187.289 299.357 187.187 299.547 186.998C304.435 182.138 309.306 177.263 314.177 172.389C314.233 172.333 314.282 172.263 314.363 172.168C314.201 171.996 314.054 171.827 313.896 171.669C309.159 166.928 304.421 162.187 299.67 157.457C299.459 157.246 299.112 157.053 298.824 157.053C294.055 157.029 289.286 157.036 284.513 157.036C284.429 157.036 284.348 157.046 284.268 157.05C289.265 162.047 294.258 167.037 299.354 172.129Z" fill="#EC1E24"/>
<path d="M79.2006 187.37H54.4393C51.7021 187.37 49.8387 186.91 48.842 185.987C47.8489 185.064 47.3506 183.236 47.3506 180.499V164.163C47.3506 161.426 47.8419 159.591 48.821 158.654C49.8 157.717 51.674 157.25 54.4393 157.25H79.2006V161.917H54.7867C54.1831 161.917 53.7866 161.987 53.5971 162.131C53.4111 162.275 53.3163 162.591 53.3163 163.082V181.316C53.3163 181.776 53.4181 182.088 53.6181 182.246C53.8182 182.404 54.2077 182.485 54.7832 182.485H79.1971V187.37H79.2006ZM113.9 187.587H91.3006C88.5633 187.587 86.6999 187.128 85.7033 186.205C84.7102 185.282 84.2118 183.454 84.2118 180.716V163.949C84.2118 161.212 84.7102 159.377 85.7033 158.44C86.6964 157.503 88.5633 157.036 91.3006 157.036H113.9C116.637 157.036 118.501 157.506 119.497 158.44C120.491 159.377 120.989 161.212 120.989 163.949V180.716C120.989 183.454 120.491 185.282 119.497 186.205C118.501 187.124 116.634 187.587 113.9 187.587ZM115.023 181.537V162.872C115.023 162.38 114.928 162.065 114.742 161.921C114.556 161.777 114.16 161.703 113.553 161.703H91.6445C91.0409 161.703 90.6443 161.777 90.4548 161.921C90.2688 162.065 90.1741 162.38 90.1741 162.872V181.537C90.1741 181.997 90.2758 182.31 90.4759 182.467C90.6759 182.625 91.0654 182.706 91.641 182.706H113.549C114.125 182.706 114.514 182.629 114.714 182.467C114.921 182.306 115.023 181.997 115.023 181.537ZM163.461 187.37H158.794L137.332 168.515C135.422 166.792 134.05 165.5 133.215 164.64H133.043C133.215 166.427 133.303 169.108 133.303 172.677V187.366H127.341V157.25H131.976L153.685 176.319C155.071 177.495 156.359 178.702 157.545 179.934H157.717C157.573 178.063 157.499 175.34 157.499 171.768V157.25H163.461V187.37ZM188.047 187.37H183.941L166.525 157.253H173.358L182.819 174.326C183.626 175.695 184.699 177.632 186.044 180.141L186.103 180.151C187.746 177.126 188.812 175.196 189.314 174.368L198.814 157.25H205.425L188.047 187.37ZM239.816 187.37H208.531V157.25H239.472V161.917H214.497V169.392H231.524V174.059H214.497V182.485H239.819V187.37H239.816ZM264.058 187.37H258.096V173.803L241.806 157.253H249.8L257.134 164.984L261.114 169.178C261.577 168.701 262.345 167.911 263.423 166.802C264.5 165.697 265.086 165.09 265.188 164.984L272.701 157.253H280.481L264.061 173.803V187.37H264.058Z" fill="currentColor" fill-opacity="0.93"/>
<path d="M67.0515 205.078H60.6436V203.849H66.9778C67.1216 203.849 67.2199 203.828 67.269 203.79C67.3182 203.751 67.3462 203.67 67.3462 203.555V202.014C67.3462 201.898 67.3217 201.821 67.269 201.779C67.2199 201.74 67.1216 201.719 66.9778 201.719H62.4157C61.7349 201.719 61.2717 201.61 61.019 201.393C60.7699 201.175 60.6436 200.772 60.6436 200.175V199.024C60.6436 198.452 60.7699 198.056 61.0226 197.835C61.2752 197.613 61.7384 197.505 62.4122 197.505H68.4306V198.645H62.4894C62.3385 198.645 62.2368 198.663 62.1841 198.698C62.135 198.733 62.1069 198.814 62.1069 198.936V200.273C62.1069 200.396 62.1315 200.477 62.1841 200.512C62.2332 200.547 62.335 200.565 62.4894 200.565H67.0515C67.7323 200.565 68.199 200.666 68.4517 200.874C68.7043 201.081 68.8307 201.47 68.8307 202.042V203.551C68.8307 204.137 68.7043 204.537 68.4517 204.751C68.199 204.969 67.7323 205.078 67.0515 205.078ZM76.6844 205.078H73.1014V207.208H71.603V199.638H76.6844C77.3511 199.638 77.8144 199.744 78.074 199.954C78.3337 200.165 78.4671 200.579 78.4671 201.203V203.516C78.4671 204.137 78.3372 204.555 78.074 204.765C77.8144 204.972 77.3511 205.078 76.6844 205.078ZM76.9686 203.611V201.024C76.9686 200.902 76.9441 200.821 76.8984 200.786C76.8528 200.751 76.7546 200.733 76.6107 200.733H73.1014V203.906H76.6107C76.7546 203.906 76.8493 203.888 76.8984 203.853C76.9476 203.818 76.9686 203.734 76.9686 203.611ZM87.514 205.078H82.8993C82.2325 205.078 81.7693 204.976 81.5096 204.772C81.2499 204.569 81.1201 204.155 81.1201 203.523V201.133C81.1201 200.512 81.2499 200.094 81.5096 199.891C81.7693 199.684 82.2325 199.582 82.8993 199.582H85.7979C86.4787 199.582 86.949 199.684 87.2086 199.887C87.4683 200.091 87.5982 200.505 87.5982 201.137V202.884H82.5273V203.698C82.5273 203.814 82.5519 203.891 82.5975 203.927C82.6431 203.962 82.7449 203.983 82.8958 203.983H87.5104V205.078H87.514ZM86.198 201.926V200.926C86.198 200.803 86.1734 200.723 86.1278 200.688C86.0822 200.652 85.9804 200.635 85.8295 200.635H82.8958C82.7449 200.635 82.6431 200.652 82.5975 200.688C82.5519 200.723 82.5273 200.803 82.5273 200.926V201.926H86.198ZM96.6591 205.078H92.0444C91.3776 205.078 90.9144 204.976 90.6547 204.772C90.395 204.569 90.2652 204.155 90.2652 203.523V201.133C90.2652 200.512 90.395 200.094 90.6547 199.891C90.9144 199.684 91.3776 199.582 92.0444 199.582H94.943C95.6238 199.582 96.0941 199.684 96.3538 199.887C96.6135 200.091 96.7433 200.505 96.7433 201.137V202.884H91.6724V203.698C91.6724 203.814 91.697 203.891 91.7426 203.927C91.7882 203.962 91.89 203.983 92.0409 203.983H96.6556V205.078H96.6591ZM95.3431 201.926V200.926C95.3431 200.803 95.3185 200.723 95.2729 200.688C95.2273 200.652 95.1255 200.635 94.9746 200.635H92.0409C91.89 200.635 91.7882 200.652 91.7426 200.688C91.697 200.723 91.6724 200.803 91.6724 200.926V201.926H95.3431ZM106.271 205.078H101.179C100.512 205.078 100.053 204.972 99.7928 204.762C99.5332 204.551 99.4068 204.137 99.4068 203.512V201.2C99.4068 200.579 99.5367 200.161 99.7928 199.951C100.049 199.74 100.512 199.635 101.179 199.635H104.772V197.505H106.271V205.078ZM104.772 203.902V200.73H101.274C101.123 200.73 101.021 200.747 100.975 200.782C100.93 200.817 100.905 200.898 100.905 201.021V203.607C100.905 203.73 100.93 203.811 100.975 203.846C101.021 203.881 101.123 203.899 101.274 203.899H104.772V203.902ZM109.942 206.218H108.889L109.401 203.751H110.91L109.942 206.218ZM127.33 205.078H125.495L122.94 202.102H119.978V205.078H118.501V197.508H124.877C125.544 197.508 125.996 197.606 126.242 197.806C126.484 198.006 126.607 198.382 126.607 198.94V200.635C126.607 201.228 126.47 201.621 126.2 201.814C125.93 202.007 125.431 202.102 124.705 202.102L127.33 205.078ZM125.112 200.645V198.94C125.112 198.817 125.088 198.736 125.042 198.701C124.996 198.666 124.895 198.649 124.744 198.649H119.975V200.94H124.744C124.888 200.94 124.986 200.919 125.038 200.881C125.088 200.838 125.112 200.761 125.112 200.645ZM135.693 205.078H131.078C130.411 205.078 129.948 204.976 129.688 204.772C129.429 204.569 129.299 204.155 129.299 203.523V201.133C129.299 200.512 129.429 200.094 129.688 199.891C129.948 199.684 130.411 199.582 131.078 199.582H133.977C134.657 199.582 135.128 199.684 135.387 199.887C135.647 200.091 135.777 200.505 135.777 201.137V202.884H130.706V203.698C130.706 203.814 130.73 203.891 130.776 203.927C130.822 203.962 130.923 203.983 131.074 203.983H135.689V205.078H135.693ZM134.377 201.926V200.926C134.377 200.803 134.352 200.723 134.306 200.688C134.261 200.652 134.159 200.635 134.008 200.635H131.074C130.923 200.635 130.822 200.652 130.776 200.688C130.73 200.723 130.706 200.803 130.706 200.926V201.926H134.377ZM141.785 205.078H140.286C139.598 205.078 139.135 204.983 138.9 204.79C138.665 204.597 138.546 204.172 138.546 203.512V197.505H140.034V203.607C140.034 203.73 140.058 203.811 140.104 203.846C140.149 203.881 140.251 203.899 140.402 203.899H141.781V205.078H141.785ZM145.585 198.68H144.031V197.508H145.585V198.68ZM145.575 205.078H144.045V199.635H145.575V205.078ZM154.808 205.078H150.017C149.337 205.078 148.88 204.979 148.649 204.779C148.417 204.579 148.301 204.197 148.301 203.632V203.088C148.301 202.551 148.431 202.2 148.687 202.028C148.944 201.86 149.41 201.772 150.084 201.772H153.397V200.979C153.397 200.856 153.372 200.775 153.327 200.74C153.281 200.705 153.179 200.688 153.028 200.688H148.758V199.635H153.035C153.716 199.635 154.179 199.733 154.432 199.933C154.681 200.133 154.808 200.554 154.808 201.2V205.078ZM153.397 203.979V202.73H150.063C149.912 202.73 149.81 202.747 149.758 202.783C149.709 202.818 149.68 202.898 149.68 203.021V203.695C149.68 203.811 149.705 203.888 149.758 203.923C149.807 203.958 149.909 203.979 150.063 203.979H153.397ZM162.767 205.078H157.661V197.508H159.159V199.638H162.752C163.419 199.638 163.879 199.744 164.139 199.954C164.398 200.165 164.525 200.579 164.525 201.203V203.516C164.525 204.137 164.395 204.555 164.139 204.765C163.882 204.976 163.426 205.078 162.767 205.078ZM163.04 203.611V201.024C163.04 200.902 163.016 200.821 162.97 200.786C162.924 200.751 162.823 200.733 162.672 200.733H159.162V203.906H162.672C162.823 203.906 162.924 203.888 162.97 203.853C163.016 203.814 163.04 203.734 163.04 203.611ZM168.873 198.68H167.318V197.508H168.873V198.68ZM168.859 205.078H167.329V199.635H168.859V205.078ZM175.007 205.078H173.508C172.821 205.078 172.357 204.983 172.122 204.79C171.887 204.597 171.768 204.172 171.768 203.512V197.505H173.256V203.607C173.256 203.73 173.28 203.811 173.326 203.846C173.371 203.881 173.473 203.899 173.624 203.899H175.003V205.078H175.007ZM178.807 198.68H177.253V197.508H178.807V198.68ZM178.797 205.078H177.267V199.635H178.797V205.078ZM185.433 205.078H183.717C183.036 205.078 182.58 204.969 182.348 204.748C182.117 204.527 182.001 204.092 182.001 203.439V200.681H181.166V199.638H182.001V198.161H183.468V199.638H185.215V200.681H183.468V203.614C183.468 203.737 183.492 203.818 183.545 203.853C183.597 203.888 183.696 203.906 183.85 203.906H185.436V205.078H185.433ZM192.504 207.204H190.928V206.085H192.36C192.518 206.085 192.627 206.064 192.686 206.022C192.746 205.98 192.774 205.892 192.774 205.762V204.979H189.539C188.879 204.979 188.423 204.874 188.163 204.664C187.907 204.453 187.777 204.039 187.777 203.414V199.635H189.265V203.565C189.265 203.688 189.289 203.769 189.342 203.804C189.391 203.839 189.49 203.856 189.633 203.856H192.771V199.631H194.269V205.65C194.269 206.281 194.139 206.695 193.883 206.899C193.63 207.102 193.171 207.204 192.504 207.204ZM209.773 205.13H204.018C203.351 205.13 202.898 205.018 202.653 204.793C202.411 204.569 202.288 204.158 202.288 203.565V202.544C202.288 202.081 202.361 201.723 202.509 201.474C202.656 201.224 202.944 201.074 203.372 201.024C203.105 200.951 202.923 200.821 202.825 200.635C202.726 200.445 202.677 200.179 202.677 199.831V199.059C202.677 198.459 202.8 198.049 203.042 197.831C203.284 197.613 203.737 197.505 204.404 197.505H209.054V198.614H204.492C204.341 198.614 204.239 198.631 204.193 198.666C204.148 198.701 204.123 198.782 204.123 198.905V200.252C204.123 200.375 204.144 200.456 204.19 200.491C204.232 200.526 204.33 200.544 204.485 200.544H209.31L208.959 199.61L210.285 199.122L210.654 200.094L211.658 199.708L212.072 200.772L211.071 201.189L211.317 201.839C211.454 202.221 211.524 202.632 211.524 203.067V203.565C211.524 204.151 211.401 204.558 211.156 204.786C210.907 205.018 210.447 205.13 209.773 205.13ZM209.903 202.133L209.741 201.698H204.127C203.976 201.698 203.874 201.716 203.828 201.751C203.783 201.786 203.758 201.867 203.758 201.989V203.653C203.758 203.769 203.783 203.846 203.835 203.884C203.884 203.923 203.983 203.944 204.13 203.944H209.692C209.836 203.944 209.931 203.927 209.98 203.891C210.029 203.856 210.05 203.776 210.05 203.653V203.165C210.043 202.73 209.998 202.386 209.903 202.133ZM227.649 205.078H221.427C220.739 205.078 220.269 204.962 220.02 204.73C219.771 204.499 219.645 204.039 219.645 203.351V199.245C219.645 198.557 219.767 198.094 220.013 197.859C220.259 197.624 220.729 197.505 221.424 197.505H227.646V198.677H221.508C221.357 198.677 221.255 198.694 221.21 198.729C221.164 198.764 221.139 198.845 221.139 198.968V203.551C221.139 203.667 221.164 203.744 221.217 203.786C221.266 203.825 221.364 203.846 221.508 203.846H227.646V205.078H227.649ZM235.359 205.13H231.916C231.257 205.13 230.797 205.028 230.537 204.821C230.278 204.614 230.148 204.211 230.148 203.611V201.102C230.148 200.502 230.278 200.098 230.537 199.891C230.797 199.684 231.257 199.582 231.916 199.582H235.359C236.019 199.582 236.478 199.684 236.745 199.887C237.008 200.091 237.142 200.491 237.142 201.095V203.614C237.142 204.214 237.012 204.618 236.752 204.825C236.489 205.028 236.026 205.13 235.359 205.13ZM235.643 203.663V200.972C235.643 200.849 235.619 200.768 235.573 200.733C235.527 200.698 235.429 200.681 235.285 200.681H232.018C231.867 200.681 231.766 200.698 231.72 200.733C231.674 200.768 231.65 200.849 231.65 200.972V203.663C231.65 203.786 231.674 203.867 231.72 203.902C231.766 203.937 231.867 203.955 232.018 203.955H235.285C235.429 203.955 235.527 203.937 235.573 203.902C235.619 203.867 235.643 203.786 235.643 203.663ZM246.297 205.078H244.809V201.028C244.809 200.905 244.785 200.824 244.739 200.789C244.694 200.754 244.592 200.737 244.441 200.737H241.409V205.081H239.911V199.638H244.525C245.192 199.638 245.652 199.744 245.911 199.954C246.168 200.165 246.297 200.579 246.297 201.203V205.078ZM252.347 205.078H251.456L248.284 199.635H250L251.361 202.168C251.575 202.554 251.765 202.909 251.933 203.228C252.109 202.853 252.295 202.491 252.484 202.147L253.867 199.635H255.53L252.347 205.078ZM263.837 205.078H259.222C258.555 205.078 258.092 204.976 257.832 204.772C257.573 204.569 257.443 204.155 257.443 203.523V201.133C257.443 200.512 257.573 200.094 257.832 199.891C258.092 199.684 258.555 199.582 259.222 199.582H262.121C262.801 199.582 263.272 199.684 263.531 199.887C263.791 200.091 263.921 200.505 263.921 201.137V202.884H258.85V203.698C258.85 203.814 258.875 203.891 258.92 203.927C258.966 203.962 259.068 203.983 259.218 203.983H263.833V205.078H263.837ZM262.524 201.926V200.926C262.524 200.803 262.5 200.723 262.454 200.688C262.408 200.652 262.307 200.635 262.156 200.635H259.222C259.071 200.635 258.969 200.652 258.924 200.688C258.878 200.723 258.854 200.803 258.854 200.926V201.926H262.524ZM273.091 205.078H271.603V201.028C271.603 200.905 271.578 200.824 271.532 200.789C271.487 200.754 271.385 200.737 271.234 200.737H268.202V205.081H266.704V199.638H271.318C271.985 199.638 272.445 199.744 272.705 199.954C272.961 200.165 273.091 200.579 273.091 201.203V205.078ZM277.512 198.68H275.958V197.508H277.512V198.68ZM277.502 205.078H275.972V199.635H277.502V205.078ZM286.699 205.078H282.085C281.418 205.078 280.955 204.976 280.695 204.772C280.435 204.569 280.306 204.155 280.306 203.523V201.133C280.306 200.512 280.435 200.094 280.695 199.891C280.955 199.684 281.418 199.582 282.085 199.582H284.983C285.664 199.582 286.134 199.684 286.394 199.887C286.654 200.091 286.784 200.505 286.784 201.137V202.884H281.713V203.698C281.713 203.814 281.737 203.891 281.783 203.927C281.829 203.962 281.93 203.983 282.081 203.983H286.696V205.078H286.699ZM285.387 201.926V200.926C285.387 200.803 285.362 200.723 285.317 200.688C285.271 200.652 285.169 200.635 285.019 200.635H282.085C281.934 200.635 281.832 200.652 281.787 200.688C281.741 200.723 281.716 200.803 281.716 200.926V201.926H285.387ZM295.953 205.078H294.465V201.028C294.465 200.905 294.441 200.824 294.395 200.789C294.35 200.754 294.248 200.737 294.097 200.737H291.065V205.081H289.567V199.638H294.181C294.848 199.638 295.308 199.744 295.567 199.954C295.824 200.165 295.953 200.579 295.953 201.203V205.078ZM304.762 205.078H300.438C299.779 205.078 299.322 204.972 299.066 204.762C298.81 204.551 298.68 204.137 298.68 203.512V201.2C298.68 200.579 298.81 200.161 299.066 199.951C299.322 199.74 299.786 199.635 300.452 199.635H304.688V200.733H300.551C300.4 200.733 300.298 200.751 300.252 200.786C300.207 200.821 300.182 200.902 300.182 201.024V203.611C300.182 203.734 300.207 203.814 300.252 203.849C300.298 203.884 300.4 203.902 300.551 203.902H304.765V205.078H304.762ZM313.535 205.078H308.92C308.253 205.078 307.79 204.976 307.53 204.772C307.271 204.569 307.141 204.155 307.141 203.523V201.133C307.141 200.512 307.271 200.094 307.53 199.891C307.79 199.684 308.253 199.582 308.92 199.582H311.819C312.5 199.582 312.97 199.684 313.229 199.887C313.489 200.091 313.619 200.505 313.619 201.137V202.884H308.548V203.698C308.548 203.814 308.573 203.891 308.618 203.927C308.664 203.962 308.766 203.983 308.917 203.983H313.531V205.078H313.535ZM312.222 201.926V200.926C312.222 200.803 312.198 200.723 312.152 200.688C312.107 200.652 312.005 200.635 311.854 200.635H308.92C308.769 200.635 308.667 200.652 308.622 200.688C308.576 200.723 308.552 200.803 308.552 200.926V201.926H312.222Z" fill="currentColor" fill-opacity="0.93"/>
</svg>
