<svg width="101" height="100" viewBox="0 0 101 100" fill="none" xmlns="http://www.w3.org/2000/svg">
<path d="M50.5 100C78.1142 100 100.5 77.6143 100.5 50C100.5 22.3858 78.1142 0 50.5 0C22.8858 0 0.5 22.3858 0.5 50C0.5 77.6143 22.8858 100 50.5 100Z" fill="#ECEDFF"/>
<path d="M45.5454 69.0735C44.4205 69.0754 43.3256 68.7115 42.4256 68.0367L42.3698 67.9949L30.6191 59.006C30.0749 58.5888 29.6182 58.0684 29.2751 57.4747C28.9319 56.8809 28.7091 56.2255 28.6193 55.5456C28.5295 54.8658 28.5745 54.1749 28.7517 53.5124C28.9289 52.85 29.2348 52.2289 29.6521 51.6847C30.0693 51.1404 30.5896 50.6837 31.1834 50.3406C31.7771 49.9975 32.4326 49.7746 33.1124 49.6848C33.7923 49.595 34.4832 49.64 35.1456 49.8172C35.8081 49.9944 36.4292 50.3004 36.9734 50.7176L44.5845 56.5542L62.57 33.0901C62.9871 32.5461 63.5072 32.0896 64.1007 31.7466C64.6942 31.4036 65.3494 31.1809 66.029 31.0911C66.7085 31.0013 67.3991 31.0463 68.0613 31.2234C68.7235 31.4006 69.3443 31.7064 69.8883 32.1234L69.8898 32.1246L69.7782 32.2796L69.8928 32.1246C70.9903 32.9681 71.7084 34.2125 71.8894 35.5848C72.0704 36.9571 71.6996 38.3451 70.8584 39.4443L49.7035 67.0309C49.214 67.6666 48.5848 68.1809 47.8645 68.5341C47.1442 68.8872 46.3522 69.0697 45.55 69.0674L45.5454 69.0735Z" fill="#1F2258"/>
</svg>
