<svg width="271" height="200" viewBox="0 0 271 200" fill="none" xmlns="http://www.w3.org/2000/svg">
<g clip-path="url(#clip0_178_6163)">
<path d="M248.927 48.6172C218.367 6.09206 153.811 -11.158 90.3227 7.42072C56.7582 17.2427 24.3958 36.9225 8.35781 75.029C-20.3119 143.149 39.8837 164.904 79.2451 171.838C98.2782 175.191 116.204 180.823 132.585 188.491C162.055 202.286 214.22 214.51 253.556 157.046C282.067 115.396 269.283 76.9431 248.927 48.6172Z" fill="#F2F2F2"/>
<path d="M71.7522 57.0305C71.6667 56.3547 71.4938 55.6928 71.2379 55.0615C71.2052 54.9421 71.1481 54.8308 71.0701 54.7347C70.9921 54.6387 70.8949 54.5599 70.7848 54.5034C70.6375 54.4651 70.4832 54.4634 70.3352 54.4984L68.0268 54.8516C67.8336 54.8604 67.6486 54.9323 67.5001 55.0562C67.1995 55.3724 67.4955 55.8815 67.4863 56.3178C67.476 56.8083 67.0401 57.2064 66.5675 57.3381C66.0851 57.4356 65.5875 57.4294 65.1076 57.32L61.8798 56.8184C62.8305 56.515 63.6766 55.9503 64.3217 55.189C64.7464 54.6858 64.9724 53.7463 64.3585 53.508C64.1761 53.458 63.986 53.4427 63.7979 53.463C62.3355 53.4744 61.1847 52.2534 59.8157 51.7391C58.9394 51.4313 57.9883 51.4083 57.0983 51.6737C56.2082 51.939 55.4249 52.479 54.8602 53.2164L56.5797 53.2993C56.7415 53.2903 56.9019 53.3331 57.0377 53.4214C57.4146 53.731 56.9461 54.3257 56.9991 54.8105C57.0681 55.4404 57.9044 55.5749 58.5349 55.6386C59.1653 55.7023 59.9651 56.2145 59.6618 56.7708C56.4932 57.8623 53.2688 54.6373 49.941 55.0343C49.0988 55.1348 48.3035 55.4657 47.4812 55.6737C42.458 56.9446 37.2649 53.5537 32.1335 54.2718C30.9927 54.4663 29.8715 54.762 28.7832 55.1554C28.0848 55.3847 27.3563 55.6325 26.8489 56.1644C26.3414 56.6962 26.1483 57.6057 26.629 58.1618C25.304 58.2709 23.9701 58.1441 22.6894 57.7873C23.0357 57.9798 23.3238 58.262 23.5235 58.6043C23.7232 58.9466 23.827 59.3363 23.8241 59.7325C21.7553 60.0699 19.7412 60.684 17.836 61.5583C18.1916 62.1496 18.6069 62.7029 19.0754 63.2094L16.4563 64.892C17.3412 65.115 17.7987 66.3216 17.2841 67.0751C18.2016 66.667 18.7702 65.6111 19.7513 65.397C20.3941 65.2567 21.0481 65.5197 21.6579 65.7667C22.2677 66.0137 22.9378 66.2532 23.5691 66.0678C24.2003 65.8824 24.6659 65.0639 24.2648 64.5425C26.9629 63.7553 29.7512 63.3196 32.5608 63.2463C32.7776 63.2191 32.9974 63.2608 33.1891 63.3656C33.5549 63.6193 33.4586 64.1674 33.4389 64.6121C33.4192 65.0568 33.7658 65.6412 34.1633 65.4408C33.6957 65.8463 34.0954 66.6096 34.544 67.036C34.9927 67.4624 35.5334 68.0508 35.2587 68.6054C35.187 68.7502 35.0655 68.866 34.9965 69.0121C34.7929 69.4432 35.1161 69.9459 35.4974 70.2322C35.8787 70.5186 36.3457 70.7187 36.6105 71.1152C36.8754 71.5117 36.7551 72.2057 36.2815 72.2611L34.9354 70.552C34.4755 71.0288 34.1602 71.6263 34.0261 72.2752C35.4535 73.4421 35.6682 75.8172 34.4732 77.2211C33.8625 77.9386 32.9941 78.3746 32.2361 78.9342C31.4781 79.4938 30.7767 80.2907 30.7786 81.2329C30.7819 82.8606 30.6489 84.3729 31.2589 85.882C32.3837 88.6647 33.6822 91.374 35.147 93.9938C35.5316 94.6817 36.0287 95.4357 36.8079 95.5541C35.8232 93.1568 34.9367 90.7221 34.1485 88.2502C34.6619 88.2522 35.2551 88.293 35.5561 88.7089C35.8053 89.0533 35.7517 89.5215 35.8292 89.9395C35.9277 90.3445 36.0919 90.7306 36.3153 91.0824L41.0179 99.459C41.4077 100.153 41.8548 100.899 42.5999 101.18C43.0762 101.36 43.6273 101.326 44.0658 101.585C44.4094 101.788 44.6409 102.148 44.9912 102.339C45.9819 102.879 47.3594 101.843 48.2851 102.488C48.5498 102.673 48.7182 102.966 48.9621 103.177C49.8172 103.917 51.2197 103.422 52.2067 103.974C52.8429 104.33 53.1725 105.042 53.5118 105.687C54.3617 107.304 55.7369 108.887 57.5583 109.016C58.1304 109.056 58.7148 108.947 59.2741 109.075C59.8333 109.202 60.3839 109.69 60.2941 110.257C60.1402 111.228 60.62 112.291 60.4912 113.266C60.2564 115.042 57.7378 115.822 57.5214 117.6C57.474 117.989 57.5482 118.391 57.4555 118.772C57.3419 119.239 56.9911 119.619 56.8665 120.084C56.6303 120.963 57.2606 121.839 57.953 122.431C58.6453 123.023 59.4712 123.533 59.8498 124.361C60.2499 125.237 60.0533 126.258 60.1835 127.212C60.4675 129.295 62.2662 130.838 64.1174 131.834C64.6814 132.137 65.287 132.431 65.652 132.957C66.1285 133.644 66.081 134.549 66.2401 135.369C66.6297 137.379 68.3214 139.035 68.3695 141.081C68.4036 142.536 67.5951 143.855 67.1121 145.228C66.6593 146.543 66.4954 147.94 66.6317 149.324C66.768 150.708 67.2012 152.046 67.9017 153.247C68.2631 153.858 68.6952 154.433 68.9508 155.094C69.4069 156.274 69.2589 157.616 69.6794 158.809C70.2354 160.387 71.7631 161.69 71.6169 163.357C72.3105 164.797 73.8421 165.505 75.3821 165.934L78.1423 166.702C78.6708 166.849 79.2231 166.997 79.7612 166.891C80.2994 166.784 80.813 166.337 80.7991 165.789C79.4455 165.484 78.0486 165.159 76.9328 164.334C75.817 163.509 75.0527 162.041 75.476 160.719C75.6723 160.107 76.09 159.399 75.6929 158.893C75.4656 158.603 75.0499 158.527 74.7935 158.263C74.3935 157.85 74.5309 157.157 74.8185 156.66C75.106 156.162 75.5216 155.718 75.6375 155.155C75.6961 154.84 75.657 154.515 75.5254 154.223C75.3939 153.931 75.1762 153.686 74.9016 153.522C75.4134 153.328 75.8789 153.03 76.2678 152.645C76.6271 152.235 76.793 151.602 76.5104 151.136C77.3497 151.242 78.3405 151.294 78.8915 150.652C79.3314 150.14 79.3012 149.373 79.1274 148.72C78.9535 148.067 78.6597 147.433 78.6506 146.758C80.5866 146.85 82.5269 146.784 84.4523 146.561C84.1739 145.623 83.5412 144.831 82.6884 144.352C83.5604 144.205 84.3548 143.161 84.6303 142.32C84.9058 141.48 84.8355 140.564 84.6653 139.696C84.5999 139.473 84.5909 139.237 84.6392 139.009C84.7374 138.696 85.0448 138.505 85.3292 138.342L89.6575 135.856C89.9158 135.727 90.1499 135.554 90.3497 135.345C90.8032 134.812 90.736 134.008 90.5038 133.348C90.2716 132.689 89.8997 132.068 89.8102 131.374C89.5427 129.299 91.764 127.81 92.5136 125.857C92.8078 125.091 92.8677 124.257 92.9247 123.438C92.9858 122.559 92.9904 121.537 92.3149 120.97C91.6674 120.426 90.6557 120.548 89.9782 120.042C89.357 119.579 89.1427 118.679 88.4641 118.304C87.8478 117.964 87.0751 118.181 86.3897 118.021C85.1829 117.739 84.4234 116.348 83.1909 116.22C82.4955 116.147 81.7085 116.487 81.1385 116.082C80.6363 115.725 80.6162 115.008 80.5206 114.399C80.3531 113.453 79.8997 112.581 79.2215 111.901C78.5434 111.221 77.673 110.765 76.7277 110.594C76.0107 110.479 75.2303 110.523 74.6203 110.129C74.0027 109.73 73.7195 108.983 73.2343 108.43C72.4524 107.54 71.2209 107.223 70.0673 106.952L65.3748 105.849C64.5418 105.653 63.4681 105.549 63.0211 106.279C62.8887 106.557 62.7951 106.851 62.7426 107.155C62.5752 107.703 62.2381 108.184 61.7798 108.529C61.3216 108.874 60.7658 109.065 60.1924 109.074C59.7991 108.403 59.162 107.91 58.414 107.698C57.9381 107.565 57.4288 107.551 56.975 107.356C56.7279 107.235 56.5079 107.065 56.3287 106.857C56.1494 106.648 56.0146 106.405 55.9325 106.143C55.8504 105.88 55.8228 105.604 55.8512 105.33C55.8797 105.057 55.9636 104.792 56.098 104.552C56.3685 104.07 56.473 103.513 56.3953 102.966C56.3176 102.419 56.062 101.913 55.668 101.525C54.87 100.809 53.7157 100.636 52.6457 100.708C52.3654 100.096 52.834 99.4061 53.339 98.9617C53.8439 98.5174 54.4571 98.0805 54.567 97.4169C54.74 96.373 53.4081 95.5802 52.3969 95.8915C51.3856 96.2027 50.7402 97.1849 50.3135 98.1532C50.0687 98.7087 49.8606 99.2937 49.4744 99.7621C49.0883 100.231 48.4664 100.566 47.8783 100.416C47.0456 100.203 46.724 99.2135 46.5397 98.3741C46.2924 97.2478 46.0437 96.1059 46.0955 94.9539C46.1474 93.802 46.5357 92.6192 47.3851 91.8393C48.7693 90.5686 50.8928 90.6932 52.7608 90.8959C52.3195 90.3986 52.4286 89.5606 52.9008 89.0925C53.1501 88.871 53.4496 88.7137 53.7734 88.6341C54.0973 88.5546 54.4356 88.5552 54.7592 88.636C55.3221 88.7531 55.8292 89.0563 56.1988 89.4967C56.7297 90.144 56.8806 91.0178 57.2819 91.7525C57.6831 92.4871 58.5854 93.1137 59.3239 92.7196C59.9617 92.3792 60.063 91.4947 59.9042 90.7893C59.7455 90.0839 59.4083 89.398 59.4658 88.6773C59.5755 87.302 61.0011 86.4743 62.2591 85.9079C63.5171 85.3415 64.9576 84.5798 65.1569 83.2147C65.1637 82.9474 65.2141 82.683 65.3061 82.432C65.4456 82.2103 65.6395 82.0279 65.8694 81.9023C69.5409 79.4759 73.2734 77.02 77.4697 75.6942C77.688 75.6252 77.7137 75.7019 77.9362 75.6478C78.2476 75.4678 78.0412 74.97 77.7427 74.7694C77.4441 74.5689 77.0451 74.4151 76.9693 74.0635C76.9137 73.805 77.0659 73.5512 77.1055 73.2898C77.2027 72.6475 76.4343 72.0544 75.8375 72.3112C75.5004 71.8648 76.1674 71.3461 76.7067 71.1976C78.3262 70.7519 79.9886 70.4803 81.6657 70.3875C81.8593 70.3568 82.0576 70.3905 82.23 70.4835C82.5117 70.6786 82.4757 71.1262 82.2761 71.4047C82.0765 71.6832 81.7659 71.858 81.5172 72.0937C81.2454 72.3585 81.0515 72.6928 80.9567 73.0603C80.862 73.4277 80.87 73.8141 80.9798 74.1773C81.8554 74.6226 82.8072 75.0811 83.7769 74.9242C84.7466 74.7673 85.6073 73.6778 85.1515 72.8076C84.727 71.9973 83.4521 71.8145 83.2328 70.9265C82.9761 69.8867 84.4481 68.9619 84.1165 67.9435C83.9713 67.4974 83.5267 67.2349 83.1856 66.9128C82.7827 66.5179 82.5086 66.0104 82.3994 65.457C82.2902 64.9035 82.3509 64.33 82.5735 63.8117C82.0179 63.9094 81.4469 63.8725 80.9085 63.704C80.37 63.5355 79.8798 63.2404 79.479 62.8433C78.7389 62.0963 78.1484 60.918 77.0973 60.9514C76.1328 60.982 75.302 62.1073 74.4001 61.764C74.1783 61.6795 73.9443 61.5077 73.7293 61.6084C73.6589 61.6541 73.5997 61.7153 73.5564 61.7872C73.5131 61.8592 73.4866 61.94 73.4791 62.0237C73.2499 63.1195 73.6442 64.368 73.047 65.3148C72.3971 66.3452 70.8939 66.4881 70.106 67.4172C69.6783 67.9216 69.5126 68.6013 69.1195 69.133C68.7264 69.6648 67.8921 70.0029 67.4203 69.5394C67.6522 69.0628 67.7155 68.5216 67.5999 68.0043C67.4843 67.487 67.1967 67.0242 66.784 66.6915C66.346 66.4058 65.8739 66.1761 65.3787 66.008C64.8253 65.7737 64.2989 65.4804 63.8087 65.133C63.5631 64.9848 63.3635 64.7713 63.2323 64.5163C63.1285 64.1969 63.1425 63.8509 63.2717 63.541C63.511 62.8552 63.933 62.2477 64.4922 61.7841C65.0515 61.3206 65.7267 61.0186 66.4451 60.9108C67.0732 60.8254 67.8043 60.8555 68.22 60.3769C68.4399 60.1236 68.5553 59.7408 68.8746 59.6379C69.0788 59.5969 69.2908 59.623 69.479 59.7124L71.8235 60.5376C72.0851 60.6557 72.373 60.7033 72.6587 60.6757C72.8003 60.6566 72.9295 60.5847 73.0204 60.4743C73.1112 60.3639 73.1569 60.2233 73.1483 60.0806C73.0734 59.6913 72.4743 59.5045 72.5288 59.1117C72.5594 58.9845 72.6278 58.8695 72.725 58.7819C73.5712 57.8813 74.6059 57.179 75.7552 56.7251C76.9045 56.2713 78.14 56.0771 79.3731 56.1566C79.669 56.6426 79.201 57.2181 78.8116 57.633C78.4222 58.0479 78.1093 58.7892 78.5802 59.1086C78.7732 59.2071 78.9879 59.2554 79.2044 59.2492C79.7817 59.3273 80.3426 59.4974 80.866 59.7531C81.6762 60.1057 82.4708 60.4915 83.2498 60.9104C83.181 60.3968 83.1154 59.8556 83.3101 59.3753C83.5048 58.895 84.0581 58.5183 84.5414 58.7053C85.0073 58.8856 85.2461 59.5024 85.7424 59.5589C86.4044 59.6342 86.6656 58.6563 86.389 58.0501C86.1125 57.4439 85.5651 56.9364 85.5194 56.2717C85.4886 55.8232 85.6593 55.2671 85.3011 54.9956C85.1736 54.914 85.0289 54.8633 84.8784 54.8474L75.9345 53.2015C75.4034 53.1038 74.6361 53.1787 74.6125 53.7182C74.5994 54.0194 74.8684 54.3173 74.7492 54.5942C74.6221 54.8897 74.2043 54.8627 73.9001 54.9672C73.4279 55.1294 73.191 55.69 73.2364 56.1871C73.3194 56.6811 73.5107 57.1505 73.7966 57.5618C73.2148 57.3186 72.334 57.2738 71.7522 57.0305Z" fill="#3F3D56"/>
<path d="M64.6158 49.4383C64.0518 49.2516 63.4441 49.2429 62.875 49.4134C62.3059 49.5838 61.803 49.9251 61.4344 50.3911C61.2871 50.585 61.1634 50.8523 61.2867 51.0622C61.4635 51.3632 61.9139 51.2443 62.2459 51.1367C62.734 50.9623 63.2652 50.9496 63.761 51.1005C64.0728 51.2076 64.3517 51.3968 64.6649 51.4998C64.8173 51.5635 64.9843 51.5846 65.1478 51.5607C65.3113 51.5368 65.4652 51.4689 65.593 51.3641C65.8079 51.1449 65.8214 50.8042 65.8218 50.4972C65.8367 50.3945 65.8285 50.2897 65.7977 50.1906C65.767 50.0914 65.7145 50.0004 65.6441 49.9241C65.5188 49.8515 65.3779 49.8099 65.2332 49.8026C64.9092 49.7426 64.6163 49.5715 64.4049 49.3186" fill="#3F3D56"/>
<path d="M67.8408 48.5404C67.7146 48.5335 67.5887 48.5592 67.4753 48.6151C67.3619 48.6709 67.2648 48.755 67.1933 48.8592C67.1217 48.9634 67.0782 49.0843 67.0669 49.2102C67.0556 49.3361 67.0769 49.4627 67.1287 49.578C67.5163 49.6837 67.9213 49.7102 68.3193 49.6557C68.5179 49.6248 68.7029 49.5359 68.851 49.4002C68.9991 49.2644 69.1036 49.0878 69.1515 48.8927C68.6829 48.978 68.1993 48.8856 67.795 48.6336" fill="#3F3D56"/>
<path d="M78.6611 47.0408C77.6061 47.2651 76.5812 47.6132 75.6079 48.078C76.0668 48.2543 76.4568 48.5735 76.7206 48.9883C76.9844 49.4031 77.1079 49.8917 77.073 50.382C77.0319 50.5703 77.0366 50.7657 77.0869 50.9517C77.1991 51.2235 77.524 51.3255 77.8097 51.3953C78.3229 51.5515 78.8588 51.6199 79.3948 51.5976C79.663 51.5836 79.9234 51.5029 80.1525 51.3629C80.3816 51.2229 80.5721 51.028 80.7069 50.7958C80.7846 50.5754 80.8757 50.36 80.9798 50.1508C81.6645 49.108 83.6987 50.3689 84.4338 49.361C84.6928 49.006 84.6691 48.4715 85.0067 48.1902C85.1814 48.0676 85.3837 47.9904 85.5956 47.9654C87.0741 47.6717 88.5674 47.459 90.0691 47.3283C90.7806 47.2664 91.708 47.0109 91.7139 46.2967C89.0339 45.7704 86.2551 46.1442 83.8095 47.3601C82.9284 47.8014 81.763 48.7298 80.9143 48.1447C80.5965 47.9256 80.6122 47.3357 80.1749 47.0894C79.7277 46.8375 79.1358 46.94 78.6611 47.0408Z" fill="#3F3D56"/>
<path d="M87.4253 48.6797L88.6833 48.9215C88.4517 48.9112 88.2206 48.9505 88.0054 49.0366C87.7902 49.1227 87.5959 49.2538 87.4353 49.4209C87.2748 49.5881 87.1517 49.7876 87.0744 50.0062C86.997 50.2247 86.9672 50.4572 86.9868 50.6881C88.1649 51.0817 89.4493 50.6987 90.6903 50.751C91.9312 50.8033 93.3751 51.6898 93.1633 52.9137C93.0992 53.2837 92.8855 53.6536 92.9966 54.0123C93.0745 54.2637 93.2963 54.4421 93.4215 54.6737C93.6823 55.1563 93.4738 55.7666 93.1445 56.2053C92.8151 56.6439 92.3725 56.9939 92.0834 57.4601C91.3644 58.6195 91.7729 60.1184 92.2012 61.4137C92.325 61.9031 92.5537 62.3598 92.8714 62.7521C93.506 63.4268 94.54 63.4855 95.4661 63.499C96.1401 63.5088 96.9123 63.4755 97.3385 62.9533C97.895 62.2715 97.5059 61.2077 97.8723 60.4076C98.205 59.6808 99.0528 59.369 99.8209 59.1479C101.228 58.7428 102.662 58.3984 103.992 57.7865C105.644 57.0267 107.188 55.8426 109.004 55.7448C109.513 55.7174 110.035 55.7775 110.526 55.6379C111.016 55.4984 111.483 55.0742 111.445 54.5654C111.414 54.1307 111.046 53.8115 110.758 53.4838C110.471 53.1561 110.245 52.6522 110.51 52.3055L115.269 51.4166C114.931 50.4972 114.668 49.2864 115.444 48.688C115.723 48.4721 116.098 48.3858 116.336 48.1248C116.742 47.6799 116.538 46.9135 116.069 46.5352C115.601 46.1568 114.967 46.069 114.367 46.0192C112.28 45.8459 110.182 45.9604 108.091 46.075C104.004 46.299 99.9168 46.523 95.8297 46.7471C95.007 46.7921 94.0571 46.7233 93.3025 47.0039C92.6637 47.2416 92.2094 47.6778 91.4788 47.831C90.1301 48.114 88.6458 47.9225 87.4253 48.6797Z" fill="#3F3D56"/>
<path d="M109.962 58.6235C109.834 58.6032 109.703 58.633 109.596 58.7066C109.526 58.7844 109.483 58.884 109.477 58.9889C109.396 59.4521 109.493 59.9288 109.748 60.3236C109.878 60.5173 110.057 60.6726 110.268 60.7735C110.478 60.8743 110.712 60.9171 110.944 60.8972C111.511 60.8249 111.928 60.3417 112.449 60.1059C113.252 59.7427 116.66 59.1767 114.302 57.9028C113.49 57.4638 112.965 57.8513 112.324 58.1404C111.595 58.5132 110.779 58.6802 109.962 58.6235Z" fill="#3F3D56"/>
<path d="M130.615 47.9606C130.34 48.073 130.109 48.2735 129.96 48.5307C129.891 48.6613 129.875 48.8134 129.915 48.9554C129.955 49.0975 130.049 49.2187 130.176 49.2939C130.278 49.3312 130.388 49.3485 130.497 49.3449L131.616 49.3783C132.092 49.3925 132.686 49.4938 132.814 49.9521C132.909 50.2924 132.696 50.7297 132.953 50.9729C133.063 51.0581 133.195 51.1097 133.333 51.1215C133.702 51.2162 134.087 51.2286 134.461 51.1579C135.276 50.9394 134.848 50.4422 135.105 49.9996C135.497 49.3222 135.429 49.7323 136.121 49.3441C136.632 49.0574 137.292 48.5373 136.865 47.8067C136.124 46.536 131.709 47.4147 130.615 47.9606Z" fill="#3F3D56"/>
<path d="M152.711 47.3218L152.061 47.4085C150.595 47.6041 149.121 47.8016 147.709 48.2418C148.32 48.4834 148.962 48.6407 149.615 48.7094C149.975 48.7271 150.332 48.7779 150.683 48.8612C151.306 49.0469 151.935 49.5262 152.537 49.2807C152.911 49.1284 153.033 48.7395 153.342 48.5333C153.556 48.391 154.366 48.1606 154.457 48.0169C155.189 46.8555 153.274 47.2466 152.711 47.3218Z" fill="#3F3D56"/>
<path d="M155.566 50.2763C154.698 50.7619 153.892 51.3519 153.167 52.0332C152.862 52.3203 152.55 52.6774 152.577 53.0957C152.614 53.6516 153.206 53.9741 153.719 54.1913L155.798 55.0711C156.05 54.7158 155.819 54.2253 155.558 53.8761C155.298 53.5269 154.988 53.1229 155.103 52.7027C155.235 52.2232 155.819 52.0598 156.31 51.9772C157.109 51.8426 159.263 51.8534 159.004 50.566C158.699 49.0491 156.368 49.8281 155.566 50.2763Z" fill="#3F3D56"/>
<path d="M155.148 136.12C154.95 136.693 154.931 137.367 155.274 137.867C155.658 138.429 156.426 138.638 157.091 138.495C157.753 138.319 158.343 137.94 158.778 137.41C159.176 136.967 159.504 136.465 159.749 135.922C160.091 135.076 160.333 134.193 160.468 133.29L161.114 129.902C161.258 129.145 161.252 126.824 159.861 127.58C159.48 127.787 158.6 129.418 158.202 129.881C157.484 130.714 157.389 131.523 157.011 132.533C156.537 133.798 155.586 134.853 155.148 136.12Z" fill="#3F3D56"/>
<path d="M228.647 153.456C228.192 153.278 227.75 153.068 227.325 152.827C226.898 153.998 226.672 155.233 226.654 156.48L229.77 154.717C230.239 154.452 230.77 154.083 230.76 153.545C230.764 153.478 230.75 153.412 230.72 153.352C230.69 153.293 230.644 153.243 230.588 153.207C230.519 153.18 230.443 153.171 230.369 153.182C229.907 153.22 229.486 153.448 229.05 153.606C228.614 153.764 228.105 153.847 227.705 153.613" fill="#3F3D56"/>
<path d="M245.084 154.503C244.742 154.596 244.408 154.716 244.084 154.861C243.369 155.225 242.883 155.916 242.239 156.395C241.624 156.854 240.883 157.106 240.155 157.351C239.941 157.54 240.039 157.921 240.272 158.087C240.521 158.229 240.808 158.294 241.094 158.272C241.85 158.289 242.647 158.296 243.309 157.931C243.682 157.689 244.031 157.412 244.352 157.103C245.126 156.457 246.055 156.031 246.976 155.619C247.311 155.493 247.62 155.308 247.89 155.072C248.469 154.503 248.509 153.624 247.676 153.43C247.002 153.273 245.725 154.295 245.084 154.503Z" fill="#3F3D56"/>
<path d="M252.346 149.759C252.383 149.367 252.331 148.971 252.194 148.603C252.056 148.234 251.836 147.901 251.551 147.629C251.542 148.414 251.518 149.249 251.077 149.898C250.763 150.36 250.27 150.672 249.926 151.112C249.581 151.553 249.428 152.25 249.832 152.637C250.091 152.833 250.405 152.941 250.73 152.946C251.534 153.04 252.464 153.093 253.028 152.512C253.336 152.195 253.486 151.725 253.861 151.492C254.001 151.434 254.126 151.344 254.227 151.231C254.382 150.984 254.135 150.66 253.858 150.571C253.581 150.482 253.275 150.524 252.997 150.439C252.718 150.355 252.462 150.042 252.605 149.788" fill="#3F3D56"/>
<path d="M239.438 121.001C239.017 121.103 238.58 121.129 238.149 121.077C237.433 120.945 236.876 120.405 236.298 119.963C234.924 118.917 233.254 118.333 231.527 118.296C229.957 118.267 228.372 118.692 226.83 118.395C226.93 118.956 227.41 119.376 227.922 119.626C228.433 119.876 228.998 120.002 229.512 120.246C230.336 120.642 230.989 121.322 231.352 122.16C231.518 122.547 231.622 122.968 231.873 123.305C232.385 123.995 233.357 124.147 234.215 124.09C235.333 124.017 236.501 123.695 237.542 124.112C238.338 124.43 238.907 125.127 239.572 125.669C240.236 126.21 241.172 126.612 241.935 126.221C241.143 125.965 240.453 125.461 239.966 124.785C239.48 124.109 239.223 123.295 239.232 122.462C239.98 122.53 242.136 122.504 242.02 121.232C241.921 120.154 240.081 120.884 239.438 121.001Z" fill="#3F3D56"/>
<path d="M229.648 129.769C229.781 129.04 230.508 128.397 230.281 127.691C230.125 127.203 229.559 126.962 229.047 126.95C228.535 126.938 228.032 127.091 227.52 127.105C227.186 127.088 226.852 127.092 226.519 127.12C225.503 127.287 224.876 128.352 223.918 128.731C223.336 128.961 222.681 128.917 222.075 129.077C220.7 129.438 219.83 130.738 218.868 131.786C217.315 133.471 215.291 134.651 213.059 135.173C212.278 135.354 211.437 135.47 210.815 135.978C209.992 136.651 209.79 137.803 209.607 138.85C209.101 141.742 208.327 144.58 207.297 147.329L210.563 147.746C211.183 147.825 211.827 147.903 212.425 147.719C212.86 147.555 213.271 147.336 213.65 147.066C215.104 146.164 216.732 145.576 218.428 145.342C219.283 145.224 220.18 145.203 220.982 145.521C221.785 145.839 222.473 146.559 222.541 147.42C222.888 147.312 223.257 147.3 223.611 147.386C223.964 147.472 224.287 147.652 224.546 147.908C225.057 148.429 225.392 149.097 225.503 149.819C225.589 150.265 225.675 150.801 226.09 150.988C226.428 151.141 226.816 150.976 227.186 150.947C228.441 150.846 229.483 152.31 230.717 152.058C232.041 151.788 232.366 149.806 233.657 149.409C234.398 149.181 235.439 149.458 235.794 148.768C236.107 148.16 235.482 147.459 235.547 146.778C235.626 145.94 236.615 145.584 237.377 145.226C240.005 143.993 241.252 140.456 239.979 137.847C239.224 136.302 237.739 135.085 237.465 133.387C237.254 132.081 237.769 130.557 236.936 129.529C236.513 129.006 235.795 128.717 235.543 128.093C235.384 127.7 235.448 127.254 235.363 126.839C235.277 126.424 234.915 125.99 234.505 126.098C233.316 126.41 232.936 130.085 232.299 130.978C231.331 132.335 229.343 131.441 229.648 129.769Z" fill="#3F3D56"/>
<path d="M207.658 122.389C207.251 122.275 206.807 122.163 206.418 122.326C206.028 122.489 205.801 123.061 206.113 123.344C208.559 123.249 211.02 123.154 213.445 123.487C216.24 123.869 219.005 124.817 221.811 124.538C220.208 124.065 218.579 123.687 216.931 123.406L214.184 122.881C213.447 122.727 212.702 122.612 211.953 122.536C210.385 122.407 209.199 122.821 207.658 122.389Z" fill="#3F3D56"/>
<path d="M210.107 113.87C209.904 113.853 209.652 113.839 209.547 114.013C209.447 114.18 209.562 114.401 209.508 114.588C209.434 114.843 209.099 114.908 208.835 114.874C208.572 114.839 208.287 114.756 208.053 114.883C207.935 114.964 207.846 115.081 207.799 115.217C207.753 115.352 207.752 115.5 207.797 115.636C207.892 115.907 208.047 116.153 208.249 116.357C208.594 116.792 208.988 117.187 209.422 117.534C210.263 118.154 211.402 118.453 211.931 119.354C212.006 119.529 212.121 119.683 212.266 119.805C212.521 119.966 212.852 119.844 213.126 119.719L214.085 119.28C214.258 119.218 214.412 119.113 214.533 118.975C214.753 118.678 214.618 118.255 214.434 117.935C214.25 117.615 214.015 117.283 214.054 116.916C214.125 116.261 214.967 116.01 215.313 115.45C215.662 114.885 215.435 114.158 215.475 113.495C215.522 112.72 216.009 111.712 215.225 111.133C214.559 110.641 213.923 111.095 213.445 111.639C212.437 112.784 211.96 114.025 210.107 113.87Z" fill="#3F3D56"/>
<path d="M215.93 102.29C216.257 102.918 216.94 103.292 217.297 103.902C217.684 104.564 217.64 105.42 218.06 106.061C218.491 106.719 219.358 107.069 219.599 107.818C219.863 108.635 219.265 109.629 219.742 110.343C219.831 110.459 219.943 110.556 220.071 110.628C220.2 110.699 220.342 110.742 220.488 110.756C220.634 110.769 220.781 110.752 220.921 110.706C221.06 110.659 221.188 110.584 221.297 110.486C221.498 110.267 221.605 109.978 221.597 109.68C221.588 109.383 221.463 109.101 221.25 108.894C220.967 108.637 220.561 108.525 220.326 108.225C220.203 108.051 220.121 107.852 220.086 107.642C219.958 107.037 219.978 106.409 220.146 105.814C220.209 105.663 220.225 105.496 220.192 105.336C220.086 105.027 219.668 105.005 219.375 104.862C218.709 104.537 218.725 103.596 218.841 102.864C218.764 103.352 217.027 102.523 216.846 102.247C216.484 101.698 216.681 100.64 216.61 100.034C215.83 100.41 215.529 101.524 215.93 102.29Z" fill="#3F3D56"/>
<path d="M198.438 111.939C198.117 111.58 197.635 111.205 197.205 111.421C196.877 111.586 196.787 112.04 196.916 112.383C197.072 112.717 197.313 113.005 197.615 113.217C198.51 113.955 199.474 114.622 200.255 115.48C201.653 117.016 202.393 119.089 203.914 120.504C204.219 120.832 204.624 121.051 205.066 121.128C205.509 121.169 206.006 120.885 206.057 120.443C206.099 120.079 205.845 119.754 205.597 119.484C205.006 118.842 204.36 118.25 203.802 117.579C203.545 117.321 203.383 116.983 203.344 116.621C203.341 116.26 203.67 115.881 204.021 115.971C203.595 115.862 203.279 115.153 202.654 115.019C202.132 114.908 202.005 115.231 201.384 114.965C200.198 114.456 199.268 112.868 198.438 111.939Z" fill="#3F3D56"/>
<path d="M226.295 77.0074C225.955 76.9063 225.62 76.7868 225.293 76.6496C224.413 76.3853 223.248 77.0324 223.366 77.9439C223.444 78.5495 224.007 78.9578 224.319 79.4832C224.78 80.2622 224.657 81.2503 224.415 82.1228C224.355 82.3929 224.242 82.6483 224.081 82.8738C223.857 83.1119 223.59 83.3046 223.293 83.4413C222.104 84.1079 221.056 84.9985 220.206 86.0638C220.113 86.1622 220.049 86.2836 220.019 86.4153C219.977 86.723 220.287 86.9472 220.462 87.2039C220.85 87.7741 220.569 88.5414 220.608 89.2303C220.602 89.3277 220.621 89.425 220.663 89.513C220.705 89.6009 220.769 89.6767 220.849 89.7329C221.083 89.8519 221.361 89.6498 221.488 89.4199C221.909 88.6568 221.592 87.4319 222.382 87.0639C222.531 86.9943 222.712 86.965 222.812 86.8337C222.97 86.6254 222.818 86.317 222.898 86.068C223.018 85.6942 223.529 85.6775 223.922 85.694C224.598 85.7223 225.273 85.6324 225.918 85.4282C226.171 85.3681 226.401 85.235 226.579 85.0455C226.815 84.7508 226.794 84.3316 226.747 83.9568C226.511 82.0883 225.919 80.2824 225.004 78.6364C225.698 78.7251 226.453 78.8019 227.052 78.4401C227.387 78.2376 227.789 77.6318 227.623 77.2195C227.36 76.5675 226.885 77.1163 226.295 77.0074Z" fill="#3F3D56"/>
<path d="M137.311 87.2837C137.394 87.7292 137.476 88.1983 137.33 88.6273C137.184 89.0563 136.725 89.4148 136.291 89.2834C135.954 89.1813 135.76 88.8429 135.521 88.5849C134.192 87.15 131.193 87.9808 130.372 86.2056C130.037 85.4811 130.264 84.6131 130.036 83.8483C129.892 83.4062 129.605 83.0246 129.22 82.7634C128.836 82.5021 128.375 82.376 127.911 82.4048C127.488 82.4659 127.076 82.5889 126.688 82.7698C124.092 83.8095 121.367 84.4911 118.587 84.796C118.059 84.8282 117.536 84.9233 117.031 85.0792C115.889 85.493 115.109 86.5512 114.554 87.631C113.999 88.7108 113.59 89.8798 112.845 90.8392C112.063 91.8474 110.968 92.5534 109.945 93.3171C109.552 93.5709 109.224 93.9146 108.989 94.3198C108.767 94.7748 108.78 95.304 108.797 95.8097L109.006 101.953C109.033 102.743 109.066 103.561 109.42 104.268C109.862 105.151 110.734 105.729 111.339 106.509C111.957 107.311 112.278 108.301 112.25 109.313C112.237 109.719 112.196 110.2 112.513 110.456C112.706 110.581 112.931 110.646 113.161 110.642L121.47 111.322C122.932 111.442 124.552 111.639 125.506 112.752C125.957 113.278 126.319 114.034 127.008 114.09C127.304 114.114 127.592 113.993 127.888 113.969C128.635 113.91 129.291 114.477 129.705 115.101C130.331 116.053 130.616 117.189 130.511 118.323C130.444 119.035 130.223 119.728 130.175 120.441C129.994 123.157 132.296 125.517 132.341 128.238C132.367 129.839 131.607 131.335 130.866 132.754C132.062 134.565 131.083 136.978 131.559 139.095C132.011 141.104 133.686 142.677 134.103 144.694C134.294 145.617 134.305 146.753 135.119 147.228C135.477 147.403 135.873 147.482 136.269 147.459C138.662 147.487 141.028 146.948 143.172 145.887C144.179 145.388 145.222 144.642 145.398 143.532C145.54 142.637 145.086 141.636 145.548 140.856C146.092 139.937 147.487 140.01 148.288 139.304C149.587 138.158 148.574 135.972 149.1 134.321C149.574 132.837 151.203 132.049 152.01 130.717C152.328 130.145 152.556 129.527 152.687 128.885C153.056 127.351 153.287 125.786 153.375 124.21C153.396 123.253 153.467 122.297 153.586 121.347C154.457 115.938 159.804 112.316 161.541 107.119C161.706 106.623 161.784 105.962 161.343 105.681C161.081 105.556 160.784 105.525 160.502 105.593L156.671 106.076C156.196 106.136 155.691 106.192 155.254 105.995C154.817 105.797 154.504 105.244 154.736 104.825C155.387 103.646 154.048 102.157 153.454 100.949C151.853 97.6973 149.946 94.605 147.759 91.7141C147.619 91.5653 147.532 91.375 147.51 91.172L148.597 91.2082C148.23 89.8914 147.624 88.4504 146.345 87.9687C145.624 87.6972 144.826 87.7911 144.056 87.8331C141.853 87.9535 139.492 87.6208 137.311 87.2837Z" fill="#3F3D56"/>
<path d="M144.058 57.6089C144.635 58.2211 145.281 58.8702 146.115 58.9769C147.588 59.1654 148.647 57.6419 149.322 56.3186C149.347 56.6559 149.502 56.9702 149.756 57.1947C150.009 57.4191 150.339 57.5359 150.677 57.5202C151.041 57.4591 151.388 57.3234 151.697 57.1217C154.616 55.5265 157.885 54.6813 161.212 54.662C161.18 54.41 161.242 54.1551 161.387 53.9465C161.532 53.7379 161.749 53.5904 161.996 53.5324C162.673 53.3983 163.282 53.983 163.608 54.5904C163.934 55.1978 164.138 55.9018 164.656 56.3565C165.174 56.8111 166.178 56.7913 166.383 56.133C166.579 55.5009 165.921 54.9619 165.374 54.5892C164.827 54.2166 164.25 53.5268 164.618 52.9769C167.413 52.3582 170.226 51.7372 173.085 51.6143C173.572 51.6312 174.057 51.5476 174.511 51.3687C174.947 51.1547 175.293 50.6689 175.176 50.1974C174.552 50.3441 173.898 50.3017 173.299 50.0754C172.699 49.8491 172.18 49.4493 171.808 48.927C175.776 48.5995 179.997 48.3204 183.514 50.1877C183.936 51.0936 181.785 51.8474 182.36 52.6645C182.544 52.9252 182.912 52.9557 183.231 52.9616C185.674 53.007 188.132 53.0515 190.549 52.6825C191.432 52.5477 192.324 52.3574 193.21 52.4667C194.687 52.6488 195.95 53.6341 197.402 53.9553C197.994 54.086 198.657 54.0905 199.155 53.7466C199.654 53.4027 199.868 52.6196 199.459 52.1725C200.827 50.832 203.097 51.1642 204.902 51.806C206.706 52.4478 208.416 53.4828 210.326 53.6259C211.695 53.7284 213.084 53.3601 214.437 53.5942C215.287 53.7414 216.079 54.1197 216.91 54.3521C218.482 54.7917 220.145 54.6989 221.777 54.7201C225.941 54.7762 230.06 55.5946 233.93 57.1349C234.433 57.2988 234.894 57.5712 235.281 57.9331C235.641 58.3186 235.824 58.9178 235.582 59.3865L231.584 58.8023C231.961 59.5439 232.935 59.6703 233.727 59.9261C234.518 60.182 235.339 61.0561 234.863 61.7385C234.006 61.4654 233.228 62.3228 232.795 63.1117C232.362 63.9006 231.834 64.8454 230.935 64.8934C230.131 64.9365 229.157 64.2512 228.633 64.8631C229.357 65.7773 229.978 66.7695 230.483 67.8212C231.001 68.9008 231.37 70.2613 230.67 71.2327C230.56 71.4061 230.392 71.5357 230.197 71.5993C229.625 71.7441 229.253 71.0443 228.843 70.6201C228.326 70.0856 227.544 69.9342 226.844 69.6835C226.144 69.4328 225.407 68.9397 225.352 68.1981C225.318 67.7366 225.561 67.3077 225.741 66.8813C226.042 66.1625 226.174 65.3838 226.126 64.6058C226.087 63.9799 225.911 63.3288 225.462 62.8914C225.012 62.4541 224.236 62.3154 223.754 62.7159C223.529 62.9028 223.348 63.2018 223.056 63.2129C222.539 63.2327 222.142 62.3319 221.727 62.6394C221.775 62.9671 221.707 63.3014 221.535 63.584C220.294 64.6629 218.389 64.2065 216.789 64.5876C216.029 64.8052 215.301 65.1231 214.624 65.533C214.371 65.6412 214.156 65.822 214.006 66.0525C213.806 66.4404 214.026 66.9372 214.378 67.1951C214.751 67.424 215.17 67.5671 215.606 67.6141C217.555 67.9834 219.533 68.555 221.072 69.8072C222.612 71.0594 223.621 73.1295 223.134 75.053L219.289 71.3793C219.435 72.9218 219.518 74.4686 219.538 76.0196C219.563 76.3224 219.521 76.627 219.416 76.9121C219.142 77.5175 218.399 77.7212 217.748 77.8548C217.567 77.8892 217.395 77.9615 217.244 78.067C217.093 78.1725 216.966 78.3088 216.871 78.4669C216.776 78.625 216.716 78.8013 216.695 78.9843C216.673 79.1673 216.69 79.3529 216.745 79.5287C216.976 80.2826 217.553 80.8703 218.081 81.456C218.609 82.0416 219.129 82.7073 219.198 83.4928C219.267 84.2783 218.674 85.1637 217.888 85.1091C217.291 85.0676 216.849 84.5338 216.595 83.9928C216.34 83.4519 216.189 82.8493 215.807 82.3896C214.65 80.9984 212.052 81.5945 211.015 80.1113C210.751 80.4109 210.568 80.7731 210.483 81.1634C210.398 81.5538 210.415 81.9593 210.531 82.3415C211.013 82.0397 211.673 82.3202 212.035 82.7587C212.397 83.1972 212.568 83.7594 212.853 84.2519C213.236 84.9166 213.847 85.5058 213.901 86.2714C213.887 86.5609 213.892 86.851 213.915 87.1399C214.011 87.6038 214.403 87.9369 214.675 88.3246C215.307 89.2269 215.276 90.4664 214.868 91.4901C214.46 92.5138 213.728 93.3692 213.002 94.1985C211.735 95.6471 210.442 97.0871 208.94 98.2901C208.511 98.6333 208.054 98.9708 207.787 99.4507C207.52 99.9306 207.506 100.604 207.916 100.969C207.623 100.984 207.096 101.128 206.802 101.143C206.699 99.9654 206.677 98.782 206.735 97.6013C205.577 97.045 204.329 98.5348 204.479 99.8112C204.628 101.088 205.552 102.112 206.209 103.216C206.69 104.024 207.047 104.965 206.886 105.891C206.726 106.817 205.899 107.672 204.963 107.59C203.474 107.46 202.851 105.322 201.376 105.078C201.246 105.047 201.11 105.061 200.988 105.116C200.769 105.236 200.731 105.529 200.719 105.779C200.659 107.003 200.606 108.275 201.084 109.404C201.783 111.055 203.589 112.442 203.21 114.194C201.17 113.246 200.109 110.957 199.627 108.759C199.145 106.56 199.065 104.253 198.201 102.175C197.545 103.015 196.167 102.32 195.568 101.438C195 100.603 194.65 99.6356 194.099 98.7884C193.548 97.9412 192.704 97.1827 191.694 97.1361C190.636 97.0872 189.718 97.8136 188.911 98.4999C188.247 99.0643 187.565 99.6509 187.177 100.431C186.612 101.566 186.76 102.905 186.733 104.172C186.704 105.543 186.413 106.989 185.479 107.992C184.545 108.995 182.821 109.344 181.791 108.44C181.253 107.968 180.993 107.263 180.761 106.586C179.642 103.323 178.711 99.9983 177.971 96.629C177.798 97.398 177.123 98.3892 176.478 97.9362C176.333 97.8144 176.216 97.6633 176.134 97.4929C174.931 95.4534 172.702 94.2302 170.451 93.4967C168.199 92.7632 165.83 92.4211 163.604 91.615C162.356 91.1631 161.164 90.5694 160.052 89.8457C159.768 90.2623 159.603 90.7479 159.573 91.2509C159.543 91.754 159.649 92.2558 159.881 92.7032C160.375 93.5777 161.493 94.0837 162.449 93.778C162.944 93.62 163.361 93.2768 163.852 93.1073C164.343 92.9378 165.001 93.021 165.215 93.4937C165.421 93.946 165.11 94.4933 165.264 94.9656C165.499 95.685 166.584 95.7405 166.963 96.3951C167.246 96.8822 167.013 97.529 166.61 97.922C166.207 98.3151 165.669 98.5306 165.177 98.8042C163.581 99.6919 162.446 101.207 161.051 102.386C159.655 103.565 157.687 104.426 156.024 103.67C156.421 101.663 154.03 100.19 153.59 98.1917C153.445 97.5341 153.52 96.8356 153.314 96.1947C153.014 95.2669 152.191 94.629 151.516 93.9259C150.697 93.0638 150.059 92.0464 149.639 90.9337C149.22 89.8211 149.028 88.6356 149.074 87.4474C149.11 86.6217 149.262 85.7826 149.074 84.9778C148.886 84.173 148.219 83.394 147.394 83.4305C145.508 83.5138 143.132 83.654 142.142 82.0464C141.789 81.4726 141.636 80.6323 142.146 80.1927C142.506 79.8826 143.038 79.9118 143.511 79.9583L147.76 80.3763C148.754 80.4741 149.828 80.5548 150.681 80.0352C151.534 79.5157 151.903 78.1366 151.114 77.5253C150.537 77.0787 149.503 77.1029 149.335 76.3928C149.196 75.8014 149.85 75.1304 149.497 74.6361C149.243 74.2817 148.673 74.38 148.328 74.6457C147.983 74.9114 147.732 75.2999 147.345 75.501C146.667 75.8539 145.857 75.5181 145.128 75.2898C144.398 75.0616 143.42 75.0422 143.067 75.7197C142.671 76.4775 143.418 77.4703 143.025 78.2296C142.506 79.2335 140.747 78.662 140.018 79.5255C139.181 80.5163 140.587 81.9938 140.305 83.2596C139.945 83.438 139.545 83.5199 139.143 83.4974C138.742 83.4748 138.353 83.3486 138.015 83.1309C137.683 82.9048 137.418 82.5928 137.249 82.2281C137.079 81.8634 137.012 81.4597 137.054 81.0598C137.124 80.4904 137.421 79.9091 137.222 79.371C137.061 78.936 136.624 78.677 136.218 78.4526L132.089 76.1709C131.706 76.882 132.19 77.7637 132.796 78.2978C133.402 78.832 134.162 79.2343 134.56 79.9373C134.812 80.4243 134.868 80.9892 134.718 81.5164C134.567 82.0437 134.221 82.4937 133.75 82.7744C133.691 82.8151 133.624 82.8426 133.553 82.8549C133.483 82.8672 133.41 82.8641 133.341 82.8458C133.275 82.8071 133.218 82.7555 133.172 82.6942C133.126 82.6329 133.094 82.563 133.075 82.4888C132.347 80.6244 131.253 78.7861 129.504 77.8122C127.755 76.8382 125.242 77.0385 124.096 78.6791C123.823 79.0688 123.64 79.513 123.403 79.925C122.143 82.1139 119.44 83.1505 116.915 83.0828C116.668 83.0964 116.422 83.0387 116.207 82.9164C115.799 82.6346 115.817 82.0365 115.88 81.5445L116.145 79.4565C116.198 79.0372 116.275 78.5738 116.607 78.3121C117.075 77.9431 117.75 78.1759 118.345 78.1674C118.797 78.1462 119.231 77.9869 119.588 77.7108C119.946 77.4348 120.21 77.0554 120.345 76.6242C120.465 76.1887 120.464 75.7286 120.343 75.2935C120.221 74.8585 119.983 74.4649 119.654 74.1552C119.381 73.8987 119.014 73.5766 119.158 73.2309C119.216 73.1352 119.294 73.0534 119.386 72.991C119.479 72.9287 119.584 72.8874 119.694 72.87C120.764 72.5593 121.895 72.4778 122.947 72.1112C123.999 71.7445 125.02 70.9944 125.269 69.9083C125.345 69.5755 125.38 69.1723 125.679 69.0073C125.829 68.944 125.99 68.9111 126.153 68.9105C126.724 68.8293 127.243 68.5375 127.609 68.0926C127.975 67.6476 128.161 67.0818 128.131 66.5064C128.635 66.154 129.342 66.4132 129.83 66.788C130.318 67.1627 130.748 67.6579 131.342 67.8194C132.448 68.1205 133.517 67.1411 134.664 67.1365C135.146 67.1346 135.645 67.3051 136.099 67.1416C136.558 66.9759 136.833 66.5182 137.186 66.1801C137.539 65.8419 138.158 65.6356 138.484 65.9999L138.206 63.9445C138.765 64.0857 139.348 64.1057 139.915 64.0031C140.482 63.9006 141.021 63.6779 141.495 63.35L137.909 62.1382C137.784 62.107 137.668 62.0454 137.573 61.9589C137.312 61.6781 137.571 61.2406 137.783 60.9214C138.291 60.1579 138.376 58.9003 137.542 58.5202C136.972 58.2607 136.319 58.5721 135.772 58.8768L133.155 60.3363C133.072 60.8339 133.68 61.1159 134.057 61.451C134.285 61.6538 134.447 61.9208 134.52 62.217C134.594 62.5133 134.576 62.8248 134.469 63.1107C134.363 63.3967 134.172 63.6437 133.922 63.8192C133.673 63.9948 133.376 64.0908 133.071 64.0945C133.243 64.3186 133.363 64.5786 133.421 64.8553C133.479 65.1319 133.475 65.4181 133.407 65.6927L131.646 65.8194C131.448 65.8592 131.243 65.8191 131.075 65.7079C130.886 65.5406 130.912 65.2475 130.868 64.9993C130.763 64.4005 130.177 63.9808 129.578 63.8731C128.98 63.7655 128.367 63.9035 127.775 64.0397C127.523 64.1302 127.247 64.1238 127 64.0218C126.858 63.9297 126.75 63.7938 126.693 63.6347C126.433 63.0048 126.676 62.2644 127.093 61.7257C127.511 61.1869 128.082 60.7931 128.595 60.3447C129.822 59.2682 130.723 57.8702 131.197 56.3085C132.167 55.9023 133.17 55.3503 134.14 54.9441C135.635 54.1873 137.311 53.8626 138.98 54.0063L142.263 54.069C143.236 54.0876 144.234 54.1114 145.133 54.482C146.032 54.8526 146.822 55.6542 146.884 56.6245C146.902 56.7343 146.893 56.8471 146.856 56.9523C146.819 57.0574 146.756 57.1515 146.673 57.2257C146.546 57.295 146.402 57.3274 146.258 57.3193C145.351 57.3511 144.965 57.577 144.058 57.6089Z" fill="#3F3D56"/>
<path d="M117.887 67.8992C118.016 67.7778 118.108 67.6233 118.154 67.4529C118.2 67.2824 118.199 67.1025 118.149 66.9329C117.837 66.8124 117.498 66.7815 117.169 66.8436C116.84 66.9057 116.535 67.0583 116.289 67.2843C116.094 67.481 115.926 67.7026 115.79 67.9434C115.359 68.6473 114.977 69.4881 115.227 70.2749C115.247 70.3607 115.285 70.4416 115.337 70.5128C115.389 70.584 115.455 70.6441 115.53 70.6895C115.642 70.7345 115.763 70.7534 115.883 70.7449C116.359 70.7442 116.834 70.715 117.305 70.6573C117.595 70.6219 117.932 70.5401 118.044 70.2705C118.191 69.9162 117.834 69.5152 117.938 69.1458C118.007 68.9807 118.11 68.8324 118.242 68.7113C118.307 68.6504 118.357 68.5751 118.388 68.4914C118.419 68.4077 118.43 68.3179 118.421 68.2291C118.379 68.0558 118.113 67.9575 118.018 68.1081" fill="#3F3D56"/>
<path d="M120.352 64.7038C119.93 64.6069 119.495 64.5795 119.064 64.6229C118.968 64.62 118.874 64.6415 118.789 64.6853C118.707 64.7458 118.647 64.8321 118.62 64.9303C118.529 65.2225 118.551 65.5383 118.682 65.8147C118.814 66.0912 119.044 66.308 119.328 66.422C119.483 66.4576 119.632 66.5172 119.768 66.5986C120.132 66.8814 119.9 67.4593 119.969 67.9154C120.047 68.4275 120.542 68.8574 120.451 69.3673C120.38 69.769 119.951 70.0871 120.02 70.4893C120.092 70.9105 120.627 71.0371 121.053 71.0708C121.3 71.114 121.554 71.0849 121.784 70.9869C122.016 70.8288 122.18 70.5906 122.246 70.3183C122.421 69.7991 122.494 69.2513 122.462 68.7045C122.46 68.4558 122.398 68.2113 122.28 67.9922C122.152 67.8186 122.01 67.6558 121.855 67.5053C121.039 66.5558 121.898 65.1395 120.352 64.7038Z" fill="#3F3D56"/>
<path opacity="0.8" d="M227.692 139.084C227.692 139.084 165.173 103.197 138.257 109.997C138.257 109.997 81.2158 116.136 74.605 129.641C74.605 129.641 56.4726 72.9767 49.8618 71.088" stroke="#DD8202" stroke-width="2" stroke-miterlimit="10"/>
<path opacity="0.8" d="M74.605 129.641C85.0878 101.686 179.527 70.7102 179.527 70.7102C166.117 74.11 138.257 109.997 138.257 109.997C138.257 109.997 79.327 67.1215 49.8618 71.088C49.8618 71.088 179.622 75.3377 227.692 139.084" stroke="#DD8202" stroke-width="2" stroke-miterlimit="10"/>
<path d="M49.8618 73.8267C51.3744 73.8267 52.6005 72.6005 52.6005 71.0879C52.6005 69.5754 51.3744 68.3492 49.8618 68.3492C48.3492 68.3492 47.123 69.5754 47.123 71.0879C47.123 72.6005 48.3492 73.8267 49.8618 73.8267Z" fill="#DD8202"/>
<path d="M74.605 132.379C76.1175 132.379 77.3437 131.153 77.3437 129.64C77.3437 128.128 76.1175 126.902 74.605 126.902C73.0924 126.902 71.8662 128.128 71.8662 129.64C71.8662 131.153 73.0924 132.379 74.605 132.379Z" fill="#DD8202"/>
<path d="M179.527 73.4489C181.04 73.4489 182.266 72.2228 182.266 70.7102C182.266 69.1976 181.04 67.9714 179.527 67.9714C178.015 67.9714 176.789 69.1976 176.789 70.7102C176.789 72.2228 178.015 73.4489 179.527 73.4489Z" fill="#DD8202"/>
<path d="M227.692 141.823C229.204 141.823 230.43 140.597 230.43 139.084C230.43 137.572 229.204 136.346 227.692 136.346C226.179 136.346 224.953 137.572 224.953 139.084C224.953 140.597 226.179 141.823 227.692 141.823Z" fill="#DD8202"/>
<path d="M138.257 112.736C139.77 112.736 140.996 111.51 140.996 109.997C140.996 108.484 139.77 107.258 138.257 107.258C136.745 107.258 135.519 108.484 135.519 109.997C135.519 111.51 136.745 112.736 138.257 112.736Z" fill="#DD8202"/>
</g>
<defs>
<clipPath id="clip0_178_6163">
<rect width="269.253" height="200" fill="white" transform="translate(0.873535)"/>
</clipPath>
</defs>
</svg>
